<svg width="249.9" height="249.9" viewBox="0 0 249.9 249.9" xmlns="http://www.w3.org/2000/svg">
  <g featurekey="rootContainer" transform="matrix(2.40057635307312,0,0,2.40057635307312,0,0)" fill="#ffffff">
    <path d="M0 0v104.1h104.1V0zm101.7 101.7H2.4V2.4h99.3z" />
  </g>
  <g transform="matrix(2.25,0,0,2.25,67.88100045919418,-4.735323429107666)" fill="#ffffff">
    <path
      d="M6.2695 41.367000000000004 l-3.1055 0 c1.7578 -10.137 9.668 -20.889 19.043 -24.141 c9.6387 -3.3691 17.607 -1.7285 26.045 2.8418 l-2.8125 12.1 l-4.6289 0 c-0.67383 -1.6406 -0.23438 -4.8633 -7.0313 -5.4492 c-9.668 -0.84961 -16.025 7.6172 -17.168 14.648 l3.1055 0 c-0.58594 3.6621 0.20508 6.9727 2.6953 8.3203 c1.6406 0.87891 4.0137 1.2891 7.5293 0.87891 l0.058594 0 l1.084 -4.7461 l-6.9727 0 l1.0254 -4.4531 l-3.1641 0 l1.5234 -6.5625 l21.504 0 l-1.4941 6.5625 l3.1348 0 l-3.7207 16.143 c-1.4941 0.61523 -3.0469 1.1133 -4.5996 1.6406 c-6.9727 2.1387 -15.908 3.5742 -22.852 0.79102 c-8.2324 -3.2227 -10.547 -10.723 -9.1992 -18.574 z" />
  </g>
  <g transform="matrix(2.40269136428833,0,0,2.40269136428833,25,131.76261544914078)" fill="#ffffff">
    <path
      d="M5.92 40.32 l-0.88 0 c-2.8 0 -5.04 -2.24 -5.04 -5.04 l0 -19.28 c0 -2.8 2.24 -5.08 5.04 -5.08 l0.88 0 c2.8 0 5.04 2.28 5.04 5.08 l0 2.04 l-3.92 0 l0 -2.04 c0 -0.68 -0.48 -1.16 -1.12 -1.16 l-0.88 0 c-0.6 0 -1.16 0.48 -1.16 1.16 l0 19.28 c0 0.6 0.56 1.16 1.16 1.16 l0.88 0 c0.64 0 1.12 -0.56 1.12 -1.16 l0 -10.4 l-2.24 0 l0 -3.88 l6.16 0 l0 14.28 c0 2.8 -2.24 5.04 -5.04 5.04 z M23.36 40 l-1.44 -9.88 l-4.04 0 l-1.32 9.88 l-3.84 0 l4.32 -28.6 l5.16 0 l5 28.6 l-3.84 0 z M18.4 26.32 l2.96 0 l-1.52 -10.4 z M33.36 40 l-3.96 0 l-4 -28.56 l3.84 0 l2.08 14.72 l1.92 -14.72 l3.84 0 z M52.08 40.04 l-5 0 l0 -28.52 l5 0 c3.4 0 6.12 2.76 6.12 6.16 l0 16.2 c0 1.64 -0.64 3.2 -1.8 4.36 s-2.68 1.8 -4.32 1.8 z M50.879999999999995 15.36 l0 20.84 l1.2 0 c0.6 0 1.2 -0.24 1.64 -0.68 s0.68 -1 0.68 -1.64 l0 -16.2 c0 -1.28 -1.04 -2.32 -2.32 -2.32 l-1.2 0 z M69.52000000000001 24.92 l-5.52 0 l0 11.28 l5.56 0 l0 3.8 l-9.36 0 l0 -28.56 l9.36 0 l0 3.8 l-5.56 0 l0 5.88 l5.52 0 l0 3.8 z M79.52 40 l-3.96 0 l-4 -28.56 l3.84 0 l2.08 14.72 l1.92 -14.72 l3.84 0 z">
    </path>
  </g>
  <style>
    @media (prefers-color-scheme:dark) {
      :root {
        filter: invert(100%)
      }
    }
  </style>
</svg>